<mxfile host="app.diagrams.net" modified="2024-05-28T09:48:14.108Z" agent="Mozilla/5.0 (Macintosh; Intel Mac OS X 10_15_7) AppleWebKit/537.36 (KHTML, like Gecko) Chrome/125.0.0.0 Safari/537.36" etag="hL3kk7O4yU9RS_59AMMU" version="24.4.8" type="github">
  <diagram name="第 1 页" id="WsUVucrzqdGAJNQKU3am">
    <mxGraphModel dx="1304" dy="790" grid="1" gridSize="10" guides="1" tooltips="1" connect="1" arrows="1" fold="1" page="1" pageScale="1" pageWidth="1169" pageHeight="827" math="0" shadow="0">
      <root>
        <mxCell id="0" />
        <mxCell id="1" parent="0" />
        <mxCell id="zJQUdyqLXVvUJiN5wL6E-32" value="" style="shape=partialRectangle;whiteSpace=wrap;html=1;top=0;bottom=0;fillColor=none;" vertex="1" parent="1">
          <mxGeometry x="430" y="94" width="250" height="640" as="geometry" />
        </mxCell>
        <mxCell id="zJQUdyqLXVvUJiN5wL6E-31" value="" style="shape=partialRectangle;whiteSpace=wrap;html=1;top=0;bottom=0;fillColor=none;" vertex="1" parent="1">
          <mxGeometry x="45" y="94" width="250" height="640" as="geometry" />
        </mxCell>
        <mxCell id="zJQUdyqLXVvUJiN5wL6E-17" value="" style="edgeStyle=orthogonalEdgeStyle;rounded=0;orthogonalLoop=1;jettySize=auto;html=1;" edge="1" parent="1" source="zJQUdyqLXVvUJiN5wL6E-13" target="zJQUdyqLXVvUJiN5wL6E-15">
          <mxGeometry relative="1" as="geometry" />
        </mxCell>
        <mxCell id="zJQUdyqLXVvUJiN5wL6E-13" value="stateController" style="swimlane;childLayout=stackLayout;horizontal=1;startSize=50;horizontalStack=0;rounded=1;fontSize=14;fontStyle=0;strokeWidth=2;resizeParent=0;resizeLast=1;shadow=0;dashed=0;align=center;arcSize=4;whiteSpace=wrap;html=1;" vertex="1" parent="1">
          <mxGeometry x="80" y="130" width="180" height="120" as="geometry" />
        </mxCell>
        <mxCell id="zJQUdyqLXVvUJiN5wL6E-14" value="+object&amp;nbsp;&lt;font face=&quot;JetBrains Mono, Menlo, Monaco, Courier New, monospace, Menlo, Monaco, Courier New, monospace&quot;&gt;&lt;span style=&quot;white-space-collapse: preserve;&quot;&gt;preloader&lt;/span&gt;&lt;/font&gt;&lt;br&gt;+object&amp;nbsp;&lt;span style=&quot;font-family: &amp;quot;JetBrains Mono&amp;quot;, Menlo, Monaco, &amp;quot;Courier New&amp;quot;, monospace, Menlo, Monaco, &amp;quot;Courier New&amp;quot;, monospace; white-space-collapse: preserve;&quot;&gt;infoController&lt;/span&gt;&lt;div&gt;&lt;span style=&quot;font-family: &amp;quot;JetBrains Mono&amp;quot;, Menlo, Monaco, &amp;quot;Courier New&amp;quot;, monospace, Menlo, Monaco, &amp;quot;Courier New&amp;quot;, monospace; white-space-collapse: preserve;&quot;&gt;&lt;br&gt;&lt;/span&gt;&lt;/div&gt;&lt;div&gt;&lt;span style=&quot;font-family: &amp;quot;JetBrains Mono&amp;quot;, Menlo, Monaco, &amp;quot;Courier New&amp;quot;, monospace, Menlo, Monaco, &amp;quot;Courier New&amp;quot;, monospace; white-space-collapse: preserve;&quot;&gt;+method startTaskChange&lt;/span&gt;&lt;/div&gt;" style="align=left;strokeColor=none;fillColor=none;spacingLeft=4;fontSize=12;verticalAlign=top;resizable=0;rotatable=0;part=1;html=1;" vertex="1" parent="zJQUdyqLXVvUJiN5wL6E-13">
          <mxGeometry y="50" width="180" height="70" as="geometry" />
        </mxCell>
        <mxCell id="zJQUdyqLXVvUJiN5wL6E-20" value="" style="edgeStyle=orthogonalEdgeStyle;rounded=0;orthogonalLoop=1;jettySize=auto;html=1;" edge="1" parent="1" source="zJQUdyqLXVvUJiN5wL6E-15" target="zJQUdyqLXVvUJiN5wL6E-18">
          <mxGeometry relative="1" as="geometry" />
        </mxCell>
        <mxCell id="zJQUdyqLXVvUJiN5wL6E-15" value="Preloader" style="swimlane;childLayout=stackLayout;horizontal=1;startSize=50;horizontalStack=0;rounded=1;fontSize=14;fontStyle=0;strokeWidth=2;resizeParent=0;resizeLast=1;shadow=0;dashed=0;align=center;arcSize=4;whiteSpace=wrap;html=1;" vertex="1" parent="1">
          <mxGeometry x="80" y="300" width="180" height="170" as="geometry" />
        </mxCell>
        <mxCell id="zJQUdyqLXVvUJiN5wL6E-16" value="+array&amp;nbsp;&lt;span style=&quot;white-space-collapse: preserve;&quot;&gt;preloadTasks&lt;/span&gt;&lt;div&gt;&lt;span style=&quot;white-space-collapse: preserve;&quot;&gt;+object pre&lt;/span&gt;&lt;/div&gt;&lt;div&gt;&lt;span style=&quot;white-space-collapse: preserve;&quot;&gt;+object cur&lt;/span&gt;&lt;/div&gt;&lt;div&gt;&lt;span style=&quot;white-space-collapse: preserve;&quot;&gt;+object next&lt;/span&gt;&lt;/div&gt;&lt;div&gt;&lt;br&gt;&lt;/div&gt;&lt;div&gt;+method addTask&lt;/div&gt;&lt;div&gt;+ method startNextTask&lt;/div&gt;" style="align=left;strokeColor=none;fillColor=none;spacingLeft=4;fontSize=12;verticalAlign=top;resizable=0;rotatable=0;part=1;html=1;" vertex="1" parent="zJQUdyqLXVvUJiN5wL6E-15">
          <mxGeometry y="50" width="180" height="120" as="geometry" />
        </mxCell>
        <mxCell id="zJQUdyqLXVvUJiN5wL6E-18" value="PreloaderTask" style="swimlane;childLayout=stackLayout;horizontal=1;startSize=50;horizontalStack=0;rounded=1;fontSize=14;fontStyle=0;strokeWidth=2;resizeParent=0;resizeLast=1;shadow=0;dashed=0;align=center;arcSize=4;whiteSpace=wrap;html=1;" vertex="1" parent="1">
          <mxGeometry x="80" y="530" width="180" height="160" as="geometry" />
        </mxCell>
        <mxCell id="zJQUdyqLXVvUJiN5wL6E-19" value="+object&amp;nbsp;&lt;span style=&quot;font-family: &amp;quot;JetBrains Mono&amp;quot;, Menlo, Monaco, &amp;quot;Courier New&amp;quot;, monospace, Menlo, Monaco, &amp;quot;Courier New&amp;quot;, monospace; white-space-collapse: preserve;&quot;&gt;preloadTasks&lt;/span&gt;&lt;div&gt;&lt;font face=&quot;JetBrains Mono, Menlo, Monaco, Courier New, monospace, Menlo, Monaco, Courier New, monospace&quot;&gt;&lt;span style=&quot;white-space-collapse: preserve;&quot;&gt;+object &lt;/span&gt;&lt;/font&gt;&lt;span style=&quot;font-family: &amp;quot;JetBrains Mono&amp;quot;, Menlo, Monaco, &amp;quot;Courier New&amp;quot;, monospace, Menlo, Monaco, &amp;quot;Courier New&amp;quot;, monospace; white-space-collapse: preserve;&quot;&gt;pre&lt;/span&gt;&lt;/div&gt;&lt;div&gt;&lt;span style=&quot;font-family: &amp;quot;JetBrains Mono&amp;quot;, Menlo, Monaco, &amp;quot;Courier New&amp;quot;, monospace, Menlo, Monaco, &amp;quot;Courier New&amp;quot;, monospace; white-space-collapse: preserve;&quot;&gt;+object cur&lt;/span&gt;&lt;/div&gt;&lt;div&gt;&lt;span style=&quot;font-family: &amp;quot;JetBrains Mono&amp;quot;, Menlo, Monaco, &amp;quot;Courier New&amp;quot;, monospace, Menlo, Monaco, &amp;quot;Courier New&amp;quot;, monospace; white-space-collapse: preserve;&quot;&gt;+object next&lt;/span&gt;&lt;/div&gt;&lt;div&gt;&lt;br&gt;&lt;/div&gt;&lt;div&gt;+method start&lt;/div&gt;&lt;div&gt;+method stop&lt;/div&gt;" style="align=left;strokeColor=none;fillColor=none;spacingLeft=4;fontSize=12;verticalAlign=top;resizable=0;rotatable=0;part=1;html=1;" vertex="1" parent="zJQUdyqLXVvUJiN5wL6E-18">
          <mxGeometry y="50" width="180" height="110" as="geometry" />
        </mxCell>
        <mxCell id="zJQUdyqLXVvUJiN5wL6E-26" value="" style="edgeStyle=orthogonalEdgeStyle;rounded=0;orthogonalLoop=1;jettySize=auto;html=1;" edge="1" parent="1" source="zJQUdyqLXVvUJiN5wL6E-21" target="zJQUdyqLXVvUJiN5wL6E-24">
          <mxGeometry relative="1" as="geometry" />
        </mxCell>
        <mxCell id="zJQUdyqLXVvUJiN5wL6E-21" value="&lt;div style=&quot;line-height: 18px; white-space: pre;&quot;&gt;&lt;font face=&quot;Helvetica&quot; style=&quot;background-color: rgb(255, 255, 255); font-size: 14px;&quot;&gt;CachePluginHost&lt;/font&gt;&lt;/div&gt;" style="swimlane;childLayout=stackLayout;horizontal=1;startSize=50;horizontalStack=0;rounded=1;fontSize=14;fontStyle=0;strokeWidth=2;resizeParent=0;resizeLast=1;shadow=0;dashed=0;align=center;arcSize=4;whiteSpace=wrap;html=1;" vertex="1" parent="1">
          <mxGeometry x="470" y="130" width="180" height="120" as="geometry" />
        </mxCell>
        <mxCell id="zJQUdyqLXVvUJiN5wL6E-22" value="+object cachePluginMap&lt;div&gt;+object cachePluginContext&lt;/div&gt;&lt;div&gt;&lt;br&gt;&lt;/div&gt;&lt;div&gt;+method start&lt;/div&gt;" style="align=left;strokeColor=none;fillColor=none;spacingLeft=4;fontSize=12;verticalAlign=top;resizable=0;rotatable=0;part=1;html=1;" vertex="1" parent="zJQUdyqLXVvUJiN5wL6E-21">
          <mxGeometry y="50" width="180" height="70" as="geometry" />
        </mxCell>
        <mxCell id="zJQUdyqLXVvUJiN5wL6E-30" value="" style="edgeStyle=orthogonalEdgeStyle;rounded=0;orthogonalLoop=1;jettySize=auto;html=1;" edge="1" parent="1" source="zJQUdyqLXVvUJiN5wL6E-24" target="zJQUdyqLXVvUJiN5wL6E-28">
          <mxGeometry relative="1" as="geometry" />
        </mxCell>
        <mxCell id="zJQUdyqLXVvUJiN5wL6E-24" value="&lt;div style=&quot;line-height: 18px; white-space: pre;&quot;&gt;&lt;font face=&quot;Helvetica&quot; style=&quot;background-color: rgb(255, 255, 255); font-size: 14px;&quot;&gt;CachePluginContext&lt;/font&gt;&lt;/div&gt;" style="swimlane;childLayout=stackLayout;horizontal=1;startSize=50;horizontalStack=0;rounded=1;fontSize=14;fontStyle=0;strokeWidth=2;resizeParent=0;resizeLast=1;shadow=0;dashed=0;align=center;arcSize=4;whiteSpace=wrap;html=1;" vertex="1" parent="1">
          <mxGeometry x="470" y="300" width="180" height="120" as="geometry" />
        </mxCell>
        <mxCell id="zJQUdyqLXVvUJiN5wL6E-25" value="&lt;div&gt;+object cacheStore&lt;/div&gt;&lt;div&gt;&lt;br&gt;&lt;/div&gt;&lt;div&gt;+method addMapTile&lt;/div&gt;&lt;div&gt;+method add&lt;/div&gt;&lt;div&gt;&lt;br&gt;&lt;/div&gt;&lt;div&gt;&lt;br&gt;&lt;/div&gt;" style="align=left;strokeColor=none;fillColor=none;spacingLeft=4;fontSize=12;verticalAlign=top;resizable=0;rotatable=0;part=1;html=1;" vertex="1" parent="zJQUdyqLXVvUJiN5wL6E-24">
          <mxGeometry y="50" width="180" height="70" as="geometry" />
        </mxCell>
        <mxCell id="zJQUdyqLXVvUJiN5wL6E-28" value="&lt;div style=&quot;line-height: 18px; white-space: pre;&quot;&gt;&lt;font face=&quot;Helvetica&quot; style=&quot;background-color: rgb(255, 255, 255); font-size: 14px;&quot;&gt;Cache(CacheStorage)&lt;/font&gt;&lt;/div&gt;" style="swimlane;childLayout=stackLayout;horizontal=1;startSize=50;horizontalStack=0;rounded=1;fontSize=14;fontStyle=0;strokeWidth=2;resizeParent=0;resizeLast=1;shadow=0;dashed=0;align=center;arcSize=4;whiteSpace=wrap;html=1;" vertex="1" parent="1">
          <mxGeometry x="470" y="500" width="180" height="120" as="geometry" />
        </mxCell>
        <mxCell id="zJQUdyqLXVvUJiN5wL6E-29" value="&lt;div&gt;+method open&lt;/div&gt;&lt;div&gt;+method add&lt;/div&gt;&lt;div&gt;+method match&lt;br&gt;&lt;/div&gt;&lt;div&gt;&lt;br&gt;&lt;/div&gt;" style="align=left;strokeColor=none;fillColor=none;spacingLeft=4;fontSize=12;verticalAlign=top;resizable=0;rotatable=0;part=1;html=1;" vertex="1" parent="zJQUdyqLXVvUJiN5wL6E-28">
          <mxGeometry y="50" width="180" height="70" as="geometry" />
        </mxCell>
        <mxCell id="zJQUdyqLXVvUJiN5wL6E-33" value="&lt;font style=&quot;font-size: 14px;&quot;&gt;Master&lt;/font&gt;" style="text;html=1;align=center;verticalAlign=middle;resizable=0;points=[];autosize=1;strokeColor=none;fillColor=none;" vertex="1" parent="1">
          <mxGeometry x="125" y="38" width="70" height="30" as="geometry" />
        </mxCell>
        <mxCell id="zJQUdyqLXVvUJiN5wL6E-34" value="&lt;font style=&quot;font-size: 14px;&quot;&gt;Service worker&lt;/font&gt;" style="text;html=1;align=center;verticalAlign=middle;resizable=0;points=[];autosize=1;strokeColor=none;fillColor=none;" vertex="1" parent="1">
          <mxGeometry x="495" y="38" width="120" height="30" as="geometry" />
        </mxCell>
      </root>
    </mxGraphModel>
  </diagram>
</mxfile>
